<svg id="Layer_1" xmlns="http://www.w3.org/2000/svg" viewBox="0 0 600 600"><style>.st0{fill:none}.st1{fill:#6244bb}</style><path class="st0" d="M192.7 0L0 192.7v50.9L243.6 0zM269.1 0L0 269.1V320L320 0zM600 0h-25.5L0 574.5V600h25.5L600 25.5zM600 600v-14.5L585.5 600zM345.4 0L0 345.4v51L396.4 0zM421.8 0L0 421.8v50.9L472.7 0zM0 0v14.5L14.5 0zM40 0L0 40v50.9L90.9 0zM498.2 0L0 498.2v50.9L549.1 0zM116.3 0L0 116.3v51L167.3 0zM560 600l40-40v-50.9L509.1 600zM330.9 600L600 330.9V280L280 600zM101.8 600L600 101.8V50.9L50.9 600zM483.7 600L600 483.7v-51L432.7 600zM407.3 600L600 407.3v-50.9L356.4 600zM254.6 600L600 254.6v-51L203.6 600zM178.2 600L600 178.2v-50.9L127.3 600z"/><path class="st1" d="M585.5 600l14.5-14.5V560l-40 40zM509.1 600l90.9-90.9v-25.4L483.7 600zM432.7 600L600 432.7v-25.4L407.3 600zM356.4 600L600 356.4v-25.5L330.9 600zM280 600l320-320v-25.4L254.6 600zM203.6 600L600 203.6v-25.4L178.2 600zM127.3 600L600 127.3v-25.5L101.8 600zM600 50.9V25.5L25.5 600h25.4zM549.1 0L0 549.1v25.4L574.5 0zM472.7 0L0 472.7v25.5L498.2 0zM396.4 0L0 396.4v25.4L421.8 0zM320 0L0 320v25.4L345.4 0zM243.6 0L0 243.6v25.5L269.1 0zM167.3 0L0 167.3v25.4L192.7 0zM90.9 0L0 90.9v25.4L116.3 0zM14.5 0L0 14.5V40L40 0z"/></svg>