<svg id="Layer_1" xmlns="http://www.w3.org/2000/svg" viewBox="0 0 100 100"><style>.st1{fill:#141519}</style><circle cx="50" cy="50" r="50" fill="#fff"/><path class="st1" d="M19.3 57.6c.1.1.3.2.6.3.3.2.7.3 1.2.5s1 .3 1.7.4 1.3.2 1.9.2c1 0 1.8-.2 2.4-.5s1.1-.8 1.4-1.6c.3-.7.5-1.6.6-2.8s.1-2.5.1-4.2V32.7h9.4V50c0 2.6-.1 5-.4 7.1-.3 2.1-.9 3.9-1.9 5.4s-2.4 2.7-4.2 3.5-4.3 1.2-7.4 1.2c-2.9 0-5.3-.7-7.4-2.1l2-7.5zM69.3 66.8v-18l-5.7 12.6h-5l-5.7-12.6v18h-9.4V32.7h10.2l7.3 16 7.4-16h10.2v34.1h-9.3z"/></svg>