<svg xmlns="http://www.w3.org/2000/svg" width="640px" height="520px" viewBox="0 0 640 520">
	<style type="text/css">.line{fill:none;stroke:#000000;stroke-width:5;stroke-miterlimit:10;}</style>
	<path class="line" d="M599.4,199.1c-11.6,2.4-18.5,1.5-20.5-2.6c-3.1-6.1,6.1-15.7,2.3-20.6c-4.1-5.1-16.5,2.6-20.5-2.6
		s6.3-15.4,2.3-20.6c-4.1-5.1-16.5,2.6-20.5-2.6c-3.9-4.9,5.4-14.5,2.3-20.6c-2.1-4.1-8.9-4.9-20.5-2.6"/>
	<path class="line" d="M521.7,482.7c-11.8-1.1-18.1-3.9-18.9-8.5c-1.2-6.7,10.5-13.2,8.2-19c-2.4-6.1-16.5-2.4-18.9-8.5
		c-2.4-6.1,10.6-12.9,8.2-19c-2.4-6.1-16.5-2.4-18.9-8.5c-2.3-5.8,9.4-12.3,8.2-19c-0.8-4.5-7.1-7.3-18.9-8.5"/>
	<polygon points="151.9,139.2 143.2,139.2 143.2,130.5 134.5,130.5 134.5,139.2 125.8,139.2 125.8,147.9 134.5,147.9 134.5,156.6 
		143.2,156.6 143.2,147.9 151.9,147.9 	"/>
	<path d="M194.5,394.1c5.9,0,10.6,4.8,10.6,10.6s-4.8,10.6-10.6,10.6s-10.6-4.8-10.6-10.6S188.6,394.1,194.5,394.1 M194.5,389.1
		c-8.6,0-15.6,7-15.6,15.6s7,15.6,15.6,15.6s15.6-7,15.6-15.6S203.1,389.1,194.5,389.1L194.5,389.1z"/>
	<path d="M54.1,77.4c5.9,0,10.6,4.8,10.6,10.6S60,98.6,54.1,98.6S43.5,93.9,43.5,88S48.3,77.4,54.1,77.4 M54.1,72.4
		c-8.6,0-15.6,7-15.6,15.6s7,15.6,15.6,15.6s15.6-7,15.6-15.6S62.8,72.4,54.1,72.4L54.1,72.4z"/>
	<polyline class="line" points="198.6,110.1 199.1,89.3 178.2,88.8 178.7,68 157.8,67.5 158.2,46.7 137.4,46.2 137.8,25.4 "/>
	<polyline class="line" points="388.4,71.6 400.7,54.7 417.6,67 429.8,50.1 446.7,62.4 459,45.6 475.8,57.8 488.1,41 "/>
	<polygon points="88,445.4 79.3,445.4 79.3,436.8 70.6,436.8 70.6,445.4 62,445.4 62,454.1 70.6,454.1 70.6,462.8 79.3,462.8 
		79.3,454.1 88,454.1 	"/>
	<polygon points="296.5,48.2 287.9,48.2 287.9,39.5 279.2,39.5 279.2,48.2 270.5,48.2 270.5,56.9 279.2,56.9 279.2,65.6 287.9,65.6 
		287.9,56.9 296.5,56.9 	"/>
	<g>
		<linearGradient id="gradient" gradientUnits="userSpaceOnUse" x1="-137.4046" y1="280.1328" x2="795.2209" y2="280.1328">
			<stop  offset="0.1" style="stop-color:#33ffbc"/>
			<stop  offset="0.9" style="stop-color:#bbff33"/>
		</linearGradient>
		<path fill="url(#gradient)" d="M-55.6,458.5c25.1-15.7,51.5-29.3,78.7-40.9c-9.6,4-19.1,8.1-28.7,12.1c43.1-18.2,88.3-30.9,134.7-37.2
			c-10.6,1.4-21.3,2.9-31.9,4.3c31.3-4.1,63-5.4,94.5-3.4c19.6,1.2,39,3.8,58.4,6.4c-10.6-1.4-21.3-2.9-31.9-4.3
			c46.3,6.2,92.5,12.8,138.8,18.8c28.7,3.7,57.3,7.3,86.2,6.8c45.9-0.8,92.1-7.2,137.2-15.2c39.2-6.9,78.1-16.6,115.7-29.9
			c29.5-10.4,58.8-22.5,86.7-36.7c26.3-13.5,49.1-30.6,72.2-49.1c11.7-10.9,20-23.7,24.8-38.6c7.5-14.3,11-29.7,10.3-46.2
			c0.6-16.5-2.8-31.9-10.3-46.2c-4.8-14.9-13.1-27.8-24.8-38.6c-8.1-6.3-16.2-12.5-24.3-18.8c-18.7-10.9-38.9-16.3-60.6-16.4
			c-10.6,1.4-21.3,2.9-31.9,4.3c-20.3,5.7-38,16-53,30.9c-0.9,0.7-1.8,1.4-2.7,2.1c8.1-6.3,16.2-12.5,24.3-18.8
			c-22.5,17.3-47.9,30.5-74,41.5c9.6-4,19.1-8.1,28.7-12.1c-44.1,18.5-90.7,31.1-137.6,39.9c-13.2,2.5-26.4,4.6-39.7,6.4
			c10.6-1.4,21.3-2.9,31.9-4.3c-26,3.5-52.2,5.8-78.5,5.9c-20.8,0.1-41.4-2-62-4.5c-15-1.8-29.9-3.8-44.9-5.8
			c10.6,1.4,21.3,2.9,31.9,4.3c-38.7-5.2-77.4-10.6-116.1-15.8c-28.2-3.8-56.3-6.9-84.8-6.9c-19.5,0-38.9,1.2-58.2,3.5
			c-28.2,3.4-56.4,7.1-84.1,13.4c-41.5,9.5-80.4,25-119.5,41.8c-26.6,11.4-52.3,24.8-76.9,40.1c-14,7.5-25.2,17.8-33.7,30.9
			c-10.6,11.6-17.8,25.2-21.5,40.8c-5,16-5.7,31.9-2.1,47.9c0.7,16,5.5,30.8,14.2,44.6c6.3,8.1,12.5,16.2,18.8,24.3
			c15,14.9,32.6,25.2,53,30.9c10.6,1.4,21.3,2.9,31.9,4.3C-94.5,474.8-74.4,469.4-55.6,458.5L-55.6,458.5z"/>
	</g>
	<path d="M456.6,145.1c5.9,0,10.6,4.8,10.6,10.6s-4.8,10.6-10.6,10.6c-5.9,0-10.6-4.8-10.6-10.6S450.7,145.1,456.6,145.1
		 M456.6,140.1c-8.6,0-15.6,7-15.6,15.6s7,15.6,15.6,15.6c8.6,0,15.6-7,15.6-15.6S465.2,140.1,456.6,140.1L456.6,140.1z"/>
	<circle cx="340.9" cy="136" r="10.4"/>
	<polygon points="594.1,431.2 587.9,437.4 581.8,431.2 575.7,437.4 581.8,443.5 575.7,449.7 581.8,455.8 587.9,449.7 594.1,455.8 
		600.2,449.7 594.1,443.5 600.2,437.4 	"/>
	<polygon points="326.1,443.8 320,449.9 313.9,443.8 307.7,449.9 313.9,456 307.7,462.2 313.9,468.3 320,462.2 326.1,468.3 
		332.3,462.2 326.1,456 332.3,449.9 	"/>
	<polygon points="590.6,83.7 581.9,83.7 581.9,75 573.2,75 573.2,83.7 564.5,83.7 564.5,92.4 573.2,92.4 573.2,101 581.9,101 
		581.9,92.4 590.6,92.4 	"/>
	<polygon fill="#ffff00" points="265.9,343.2 423.7,297.9 305.6,183.9 	"/>
	<g>
		<path d="M300.2,189.6l105.7,102l-141.2,40.5L300.2,189.6 M297.5,180l-39.6,159.3L415.6,294L297.5,180L297.5,180z"/>
	</g>
	<polygon points="483.6,246.7 477.4,252.8 471.3,246.7 465.1,252.8 471.3,259 465.1,265.1 471.3,271.3 477.4,265.1 483.6,271.3 
		489.7,265.1 483.6,259 489.7,252.8 	"/>
	<path d="M577.5,312c5.9,0,10.6,4.8,10.6,10.6s-4.8,10.6-10.6,10.6s-10.6-4.8-10.6-10.6S571.7,312,577.5,312 M577.5,307
		c-8.6,0-15.6,7-15.6,15.6s7,15.6,15.6,15.6s15.6-7,15.6-15.6S586.2,307,577.5,307L577.5,307z"/>
	<circle cx="388.8" cy="377.8" r="10.4"/>
	<path d="M234.5,192.1c5.9,0,10.6,4.8,10.6,10.6s-4.8,10.6-10.6,10.6s-10.6-4.8-10.6-10.6S228.6,192.1,234.5,192.1 M234.5,187.1
		c-8.6,0-15.6,7-15.6,15.6s7,15.6,15.6,15.6c8.6,0,15.6-7,15.6-15.6S243.1,187.1,234.5,187.1L234.5,187.1z"/>
</svg>
