<?xml version="1.0" encoding="utf-8"?>
<!-- Generator: Adobe Illustrator 21.0.0, SVG Export Plug-In . SVG Version: 6.00 Build 0)  -->
<svg version="1.1" xmlns="http://www.w3.org/2000/svg" xmlns:xlink="http://www.w3.org/1999/xlink" x="0px" y="0px"
	 viewBox="0 0 640 520" style="enable-background:new 0 0 640 520;" xml:space="preserve">
<style type="text/css">
	.st0{display:none;}
	.st1{display:inline;}
	.st2{fill:#33CCCC;}
	.st3{display:inline;fill:#2751FF;}
	.st4{display:inline;fill:url(#SVGID_1_);}
	.st5{display:inline;fill:#27F227;}
	.st6{display:inline;fill:#FD262C;}
	.st7{display:inline;fill:#FFFF00;}
	.st8{display:inline;fill:#9933CC;}
	.st9{display:inline;fill:#060354;}
	.st10{display:inline;fill:#FF8300;}
	.st11{display:inline;opacity:0.1;clip-path:url(#SVGID_3_);}
	.st12{fill:#C1272D;}
	.st13{display:inline;fill:#8B73E5;}
	.st14{fill:#F7F7F7;}
	.st15{opacity:0.4;}
	.st16{fill:#7F7F7F;}
	.st17{fill:url(#SVGID_4_);}
	.st18{fill:url(#SVGID_5_);}
	.st19{fill:url(#SVGID_6_);}
	.st20{fill:#141519;}
	.st21{fill:#FFFFFF;}
	.st22{font-family:'Raleway-Black';}
	.st23{font-size:30px;}
	.st24{font-family:'Raleway-Light';}
	.st25{font-size:18px;}
	.st26{fill:url(#SVGID_7_);}
	.st27{fill:url(#SVGID_8_);}
	.st28{display:inline;fill:#141519;}
	.st29{font-size:14px;}
	.st30{fill:#141519;stroke:#000000;stroke-width:2;stroke-miterlimit:10;}
</style>
<g id="Background">
	<rect class="st14" width="640" height="520"/>
</g>
<g id="Pattern">
	<g class="st15">
		<polygon class="st16" points="320.3,259.7 320.3,254 319.7,254 319.7,259.7 314,259.7 314,260.3 319.7,260.3 319.7,266 320.3,266 
			320.3,260.3 326,260.3 326,259.7 		"/>
		<polygon class="st16" points="320.3,217.7 320.3,212 319.7,212 319.7,217.7 314,217.7 314,218.3 319.7,218.3 319.7,224 320.3,224 
			320.3,218.3 326,218.3 326,217.7 		"/>
		<polygon class="st16" points="320.3,301.7 320.3,296 319.7,296 319.7,301.7 314,301.7 314,302.3 319.7,302.3 319.7,308 320.3,308 
			320.3,302.3 326,302.3 326,301.7 		"/>
		<polygon class="st16" points="362.3,259.7 362.3,254 361.7,254 361.7,259.7 356,259.7 356,260.3 361.7,260.3 361.7,266 362.3,266 
			362.3,260.3 368,260.3 368,259.7 		"/>
		<polygon class="st16" points="278.3,259.7 278.3,254 277.7,254 277.7,259.7 272,259.7 272,260.3 277.7,260.3 277.7,266 278.3,266 
			278.3,260.3 284,260.3 284,259.7 		"/>
		<polygon class="st16" points="194.3,259.7 194.3,254 193.7,254 193.7,259.7 188,259.7 188,260.3 193.7,260.3 193.7,266 194.3,266 
			194.3,260.3 200,260.3 200,259.7 		"/>
		<polygon class="st16" points="236.3,259.7 236.3,254 235.7,254 235.7,259.7 230,259.7 230,260.3 235.7,260.3 235.7,266 236.3,266 
			236.3,260.3 242,260.3 242,259.7 		"/>
		<polygon class="st16" points="152.3,259.7 152.3,254 151.7,254 151.7,259.7 146,259.7 146,260.3 151.7,260.3 151.7,266 152.3,266 
			152.3,260.3 158,260.3 158,259.7 		"/>
		<polygon class="st16" points="110.3,259.7 110.3,254 109.7,254 109.7,259.7 104,259.7 104,260.3 109.7,260.3 109.7,266 110.3,266 
			110.3,260.3 116,260.3 116,259.7 		"/>
		<polygon class="st16" points="68.3,259.7 68.3,254 67.7,254 67.7,259.7 62,259.7 62,260.3 67.7,260.3 67.7,266 68.3,266 
			68.3,260.3 74,260.3 74,259.7 		"/>
		<polygon class="st16" points="278.3,301.7 278.3,296 277.7,296 277.7,301.7 272,301.7 272,302.3 277.7,302.3 277.7,308 278.3,308 
			278.3,302.3 284,302.3 284,301.7 		"/>
		<polygon class="st16" points="194.3,301.7 194.3,296 193.7,296 193.7,301.7 188,301.7 188,302.3 193.7,302.3 193.7,308 194.3,308 
			194.3,302.3 200,302.3 200,301.7 		"/>
		<polygon class="st16" points="236.3,301.7 236.3,296 235.7,296 235.7,301.7 230,301.7 230,302.3 235.7,302.3 235.7,308 236.3,308 
			236.3,302.3 242,302.3 242,301.7 		"/>
		<polygon class="st16" points="152.3,301.7 152.3,296 151.7,296 151.7,301.7 146,301.7 146,302.3 151.7,302.3 151.7,308 152.3,308 
			152.3,302.3 158,302.3 158,301.7 		"/>
		<polygon class="st16" points="110.3,301.7 110.3,296 109.7,296 109.7,301.7 104,301.7 104,302.3 109.7,302.3 109.7,308 110.3,308 
			110.3,302.3 116,302.3 116,301.7 		"/>
		<polygon class="st16" points="68.3,301.7 68.3,296 67.7,296 67.7,301.7 62,301.7 62,302.3 67.7,302.3 67.7,308 68.3,308 
			68.3,302.3 74,302.3 74,301.7 		"/>
		<polygon class="st16" points="530.3,259.7 530.3,254 529.7,254 529.7,259.7 524,259.7 524,260.3 529.7,260.3 529.7,266 530.3,266 
			530.3,260.3 536,260.3 536,259.7 		"/>
		<polygon class="st16" points="446.3,259.7 446.3,254 445.7,254 445.7,259.7 440,259.7 440,260.3 445.7,260.3 445.7,266 446.3,266 
			446.3,260.3 452,260.3 452,259.7 		"/>
		<polygon class="st16" points="488.3,259.7 488.3,254 487.7,254 487.7,259.7 482,259.7 482,260.3 487.7,260.3 487.7,266 488.3,266 
			488.3,260.3 494,260.3 494,259.7 		"/>
		<polygon class="st16" points="572.3,259.7 572.3,254 571.7,254 571.7,259.7 566,259.7 566,260.3 571.7,260.3 571.7,266 572.3,266 
			572.3,260.3 578,260.3 578,259.7 		"/>
		<polygon class="st16" points="404.3,259.7 404.3,254 403.7,254 403.7,259.7 398,259.7 398,260.3 403.7,260.3 403.7,266 404.3,266 
			404.3,260.3 410,260.3 410,259.7 		"/>
		<polygon class="st16" points="362.3,301.7 362.3,296 361.7,296 361.7,301.7 356,301.7 356,302.3 361.7,302.3 361.7,308 362.3,308 
			362.3,302.3 368,302.3 368,301.7 		"/>
		<polygon class="st16" points="530.3,301.7 530.3,296 529.7,296 529.7,301.7 524,301.7 524,302.3 529.7,302.3 529.7,308 530.3,308 
			530.3,302.3 536,302.3 536,301.7 		"/>
		<polygon class="st16" points="446.3,301.7 446.3,296 445.7,296 445.7,301.7 440,301.7 440,302.3 445.7,302.3 445.7,308 446.3,308 
			446.3,302.3 452,302.3 452,301.7 		"/>
		<polygon class="st16" points="488.3,301.7 488.3,296 487.7,296 487.7,301.7 482,301.7 482,302.3 487.7,302.3 487.7,308 488.3,308 
			488.3,302.3 494,302.3 494,301.7 		"/>
		<polygon class="st16" points="572.3,301.7 572.3,296 571.7,296 571.7,301.7 566,301.7 566,302.3 571.7,302.3 571.7,308 572.3,308 
			572.3,302.3 578,302.3 578,301.7 		"/>
		<polygon class="st16" points="404.3,301.7 404.3,296 403.7,296 403.7,301.7 398,301.7 398,302.3 403.7,302.3 403.7,308 404.3,308 
			404.3,302.3 410,302.3 410,301.7 		"/>
		<polygon class="st16" points="320.3,343.7 320.3,338 319.7,338 319.7,343.7 314,343.7 314,344.3 319.7,344.3 319.7,350 320.3,350 
			320.3,344.3 326,344.3 326,343.7 		"/>
		<polygon class="st16" points="362.3,343.7 362.3,338 361.7,338 361.7,343.7 356,343.7 356,344.3 361.7,344.3 361.7,350 362.3,350 
			362.3,344.3 368,344.3 368,343.7 		"/>
		<polygon class="st16" points="278.3,343.7 278.3,338 277.7,338 277.7,343.7 272,343.7 272,344.3 277.7,344.3 277.7,350 278.3,350 
			278.3,344.3 284,344.3 284,343.7 		"/>
		<polygon class="st16" points="194.3,343.7 194.3,338 193.7,338 193.7,343.7 188,343.7 188,344.3 193.7,344.3 193.7,350 194.3,350 
			194.3,344.3 200,344.3 200,343.7 		"/>
		<polygon class="st16" points="236.3,343.7 236.3,338 235.7,338 235.7,343.7 230,343.7 230,344.3 235.7,344.3 235.7,350 236.3,350 
			236.3,344.3 242,344.3 242,343.7 		"/>
		<polygon class="st16" points="152.3,343.7 152.3,338 151.7,338 151.7,343.7 146,343.7 146,344.3 151.7,344.3 151.7,350 152.3,350 
			152.3,344.3 158,344.3 158,343.7 		"/>
		<polygon class="st16" points="110.3,343.7 110.3,338 109.7,338 109.7,343.7 104,343.7 104,344.3 109.7,344.3 109.7,350 110.3,350 
			110.3,344.3 116,344.3 116,343.7 		"/>
		<polygon class="st16" points="68.3,343.7 68.3,338 67.7,338 67.7,343.7 62,343.7 62,344.3 67.7,344.3 67.7,350 68.3,350 
			68.3,344.3 74,344.3 74,343.7 		"/>
		<polygon class="st16" points="530.3,343.7 530.3,338 529.7,338 529.7,343.7 524,343.7 524,344.3 529.7,344.3 529.7,350 530.3,350 
			530.3,344.3 536,344.3 536,343.7 		"/>
		<polygon class="st16" points="446.3,343.7 446.3,338 445.7,338 445.7,343.7 440,343.7 440,344.3 445.7,344.3 445.7,350 446.3,350 
			446.3,344.3 452,344.3 452,343.7 		"/>
		<polygon class="st16" points="488.3,343.7 488.3,338 487.7,338 487.7,343.7 482,343.7 482,344.3 487.7,344.3 487.7,350 488.3,350 
			488.3,344.3 494,344.3 494,343.7 		"/>
		<polygon class="st16" points="572.3,343.7 572.3,338 571.7,338 571.7,343.7 566,343.7 566,344.3 571.7,344.3 571.7,350 572.3,350 
			572.3,344.3 578,344.3 578,343.7 		"/>
		<polygon class="st16" points="404.3,343.7 404.3,338 403.7,338 403.7,343.7 398,343.7 398,344.3 403.7,344.3 403.7,350 404.3,350 
			404.3,344.3 410,344.3 410,343.7 		"/>
		<polygon class="st16" points="320.3,385.7 320.3,380 319.7,380 319.7,385.7 314,385.7 314,386.3 319.7,386.3 319.7,392 320.3,392 
			320.3,386.3 326,386.3 326,385.7 		"/>
		<polygon class="st16" points="362.3,385.7 362.3,380 361.7,380 361.7,385.7 356,385.7 356,386.3 361.7,386.3 361.7,392 362.3,392 
			362.3,386.3 368,386.3 368,385.7 		"/>
		<polygon class="st16" points="278.3,385.7 278.3,380 277.7,380 277.7,385.7 272,385.7 272,386.3 277.7,386.3 277.7,392 278.3,392 
			278.3,386.3 284,386.3 284,385.7 		"/>
		<polygon class="st16" points="194.3,385.7 194.3,380 193.7,380 193.7,385.7 188,385.7 188,386.3 193.7,386.3 193.7,392 194.3,392 
			194.3,386.3 200,386.3 200,385.7 		"/>
		<polygon class="st16" points="236.3,385.7 236.3,380 235.7,380 235.7,385.7 230,385.7 230,386.3 235.7,386.3 235.7,392 236.3,392 
			236.3,386.3 242,386.3 242,385.7 		"/>
		<polygon class="st16" points="152.3,385.7 152.3,380 151.7,380 151.7,385.7 146,385.7 146,386.3 151.7,386.3 151.7,392 152.3,392 
			152.3,386.3 158,386.3 158,385.7 		"/>
		<polygon class="st16" points="110.3,385.7 110.3,380 109.7,380 109.7,385.7 104,385.7 104,386.3 109.7,386.3 109.7,392 110.3,392 
			110.3,386.3 116,386.3 116,385.7 		"/>
		<polygon class="st16" points="68.3,385.7 68.3,380 67.7,380 67.7,385.7 62,385.7 62,386.3 67.7,386.3 67.7,392 68.3,392 
			68.3,386.3 74,386.3 74,385.7 		"/>
		<polygon class="st16" points="530.3,385.7 530.3,380 529.7,380 529.7,385.7 524,385.7 524,386.3 529.7,386.3 529.7,392 530.3,392 
			530.3,386.3 536,386.3 536,385.7 		"/>
		<polygon class="st16" points="446.3,385.7 446.3,380 445.7,380 445.7,385.7 440,385.7 440,386.3 445.7,386.3 445.7,392 446.3,392 
			446.3,386.3 452,386.3 452,385.7 		"/>
		<polygon class="st16" points="488.3,385.7 488.3,380 487.7,380 487.7,385.7 482,385.7 482,386.3 487.7,386.3 487.7,392 488.3,392 
			488.3,386.3 494,386.3 494,385.7 		"/>
		<polygon class="st16" points="572.3,385.7 572.3,380 571.7,380 571.7,385.7 566,385.7 566,386.3 571.7,386.3 571.7,392 572.3,392 
			572.3,386.3 578,386.3 578,385.7 		"/>
		<polygon class="st16" points="404.3,385.7 404.3,380 403.7,380 403.7,385.7 398,385.7 398,386.3 403.7,386.3 403.7,392 404.3,392 
			404.3,386.3 410,386.3 410,385.7 		"/>
		<polygon class="st16" points="320.3,427.7 320.3,422 319.7,422 319.7,427.7 314,427.7 314,428.3 319.7,428.3 319.7,434 320.3,434 
			320.3,428.3 326,428.3 326,427.7 		"/>
		<polygon class="st16" points="362.3,427.7 362.3,422 361.7,422 361.7,427.7 356,427.7 356,428.3 361.7,428.3 361.7,434 362.3,434 
			362.3,428.3 368,428.3 368,427.7 		"/>
		<polygon class="st16" points="278.3,427.7 278.3,422 277.7,422 277.7,427.7 272,427.7 272,428.3 277.7,428.3 277.7,434 278.3,434 
			278.3,428.3 284,428.3 284,427.7 		"/>
		<polygon class="st16" points="194.3,427.7 194.3,422 193.7,422 193.7,427.7 188,427.7 188,428.3 193.7,428.3 193.7,434 194.3,434 
			194.3,428.3 200,428.3 200,427.7 		"/>
		<polygon class="st16" points="236.3,427.7 236.3,422 235.7,422 235.7,427.7 230,427.7 230,428.3 235.7,428.3 235.7,434 236.3,434 
			236.3,428.3 242,428.3 242,427.7 		"/>
		<polygon class="st16" points="152.3,427.7 152.3,422 151.7,422 151.7,427.7 146,427.7 146,428.3 151.7,428.3 151.7,434 152.3,434 
			152.3,428.3 158,428.3 158,427.7 		"/>
		<polygon class="st16" points="110.3,427.7 110.3,422 109.7,422 109.7,427.7 104,427.7 104,428.3 109.7,428.3 109.7,434 110.3,434 
			110.3,428.3 116,428.3 116,427.7 		"/>
		<polygon class="st16" points="68.3,427.7 68.3,422 67.7,422 67.7,427.7 62,427.7 62,428.3 67.7,428.3 67.7,434 68.3,434 
			68.3,428.3 74,428.3 74,427.7 		"/>
		<polygon class="st16" points="530.3,427.7 530.3,422 529.7,422 529.7,427.7 524,427.7 524,428.3 529.7,428.3 529.7,434 530.3,434 
			530.3,428.3 536,428.3 536,427.7 		"/>
		<polygon class="st16" points="446.3,427.7 446.3,422 445.7,422 445.7,427.7 440,427.7 440,428.3 445.7,428.3 445.7,434 446.3,434 
			446.3,428.3 452,428.3 452,427.7 		"/>
		<polygon class="st16" points="488.3,427.7 488.3,422 487.7,422 487.7,427.7 482,427.7 482,428.3 487.7,428.3 487.7,434 488.3,434 
			488.3,428.3 494,428.3 494,427.7 		"/>
		<polygon class="st16" points="572.3,427.7 572.3,422 571.7,422 571.7,427.7 566,427.7 566,428.3 571.7,428.3 571.7,434 572.3,434 
			572.3,428.3 578,428.3 578,427.7 		"/>
		<polygon class="st16" points="404.3,427.7 404.3,422 403.7,422 403.7,427.7 398,427.7 398,428.3 403.7,428.3 403.7,434 404.3,434 
			404.3,428.3 410,428.3 410,427.7 		"/>
		<polygon class="st16" points="320.3,175.7 320.3,170 319.7,170 319.7,175.7 314,175.7 314,176.3 319.7,176.3 319.7,182 320.3,182 
			320.3,176.3 326,176.3 326,175.7 		"/>
		<polygon class="st16" points="362.3,175.7 362.3,170 361.7,170 361.7,175.7 356,175.7 356,176.3 361.7,176.3 361.7,182 362.3,182 
			362.3,176.3 368,176.3 368,175.7 		"/>
		<polygon class="st16" points="278.3,175.7 278.3,170 277.7,170 277.7,175.7 272,175.7 272,176.3 277.7,176.3 277.7,182 278.3,182 
			278.3,176.3 284,176.3 284,175.7 		"/>
		<polygon class="st16" points="194.3,175.7 194.3,170 193.7,170 193.7,175.7 188,175.7 188,176.3 193.7,176.3 193.7,182 194.3,182 
			194.3,176.3 200,176.3 200,175.7 		"/>
		<polygon class="st16" points="236.3,175.7 236.3,170 235.7,170 235.7,175.7 230,175.7 230,176.3 235.7,176.3 235.7,182 236.3,182 
			236.3,176.3 242,176.3 242,175.7 		"/>
		<polygon class="st16" points="152.3,175.7 152.3,170 151.7,170 151.7,175.7 146,175.7 146,176.3 151.7,176.3 151.7,182 152.3,182 
			152.3,176.3 158,176.3 158,175.7 		"/>
		<polygon class="st16" points="110.3,175.7 110.3,170 109.7,170 109.7,175.7 104,175.7 104,176.3 109.7,176.3 109.7,182 110.3,182 
			110.3,176.3 116,176.3 116,175.7 		"/>
		<polygon class="st16" points="68.3,175.7 68.3,170 67.7,170 67.7,175.7 62,175.7 62,176.3 67.7,176.3 67.7,182 68.3,182 
			68.3,176.3 74,176.3 74,175.7 		"/>
		<polygon class="st16" points="278.3,217.7 278.3,212 277.7,212 277.7,217.7 272,217.7 272,218.3 277.7,218.3 277.7,224 278.3,224 
			278.3,218.3 284,218.3 284,217.7 		"/>
		<polygon class="st16" points="194.3,217.7 194.3,212 193.7,212 193.7,217.7 188,217.7 188,218.3 193.7,218.3 193.7,224 194.3,224 
			194.3,218.3 200,218.3 200,217.7 		"/>
		<polygon class="st16" points="236.3,217.7 236.3,212 235.7,212 235.7,217.7 230,217.7 230,218.3 235.7,218.3 235.7,224 236.3,224 
			236.3,218.3 242,218.3 242,217.7 		"/>
		<polygon class="st16" points="152.3,217.7 152.3,212 151.7,212 151.7,217.7 146,217.7 146,218.3 151.7,218.3 151.7,224 152.3,224 
			152.3,218.3 158,218.3 158,217.7 		"/>
		<polygon class="st16" points="110.3,217.7 110.3,212 109.7,212 109.7,217.7 104,217.7 104,218.3 109.7,218.3 109.7,224 110.3,224 
			110.3,218.3 116,218.3 116,217.7 		"/>
		<polygon class="st16" points="68.3,217.7 68.3,212 67.7,212 67.7,217.7 62,217.7 62,218.3 67.7,218.3 67.7,224 68.3,224 
			68.3,218.3 74,218.3 74,217.7 		"/>
		<polygon class="st16" points="530.3,175.7 530.3,170 529.7,170 529.7,175.7 524,175.7 524,176.3 529.7,176.3 529.7,182 530.3,182 
			530.3,176.3 536,176.3 536,175.7 		"/>
		<polygon class="st16" points="446.3,175.7 446.3,170 445.7,170 445.7,175.7 440,175.7 440,176.3 445.7,176.3 445.7,182 446.3,182 
			446.3,176.3 452,176.3 452,175.7 		"/>
		<polygon class="st16" points="488.3,175.7 488.3,170 487.7,170 487.7,175.7 482,175.7 482,176.3 487.7,176.3 487.7,182 488.3,182 
			488.3,176.3 494,176.3 494,175.7 		"/>
		<polygon class="st16" points="572.3,175.7 572.3,170 571.7,170 571.7,175.7 566,175.7 566,176.3 571.7,176.3 571.7,182 572.3,182 
			572.3,176.3 578,176.3 578,175.7 		"/>
		<polygon class="st16" points="404.3,175.7 404.3,170 403.7,170 403.7,175.7 398,175.7 398,176.3 403.7,176.3 403.7,182 404.3,182 
			404.3,176.3 410,176.3 410,175.7 		"/>
		<polygon class="st16" points="362.3,217.7 362.3,212 361.7,212 361.7,217.7 356,217.7 356,218.3 361.7,218.3 361.7,224 362.3,224 
			362.3,218.3 368,218.3 368,217.7 		"/>
		<polygon class="st16" points="530.3,217.7 530.3,212 529.7,212 529.7,217.7 524,217.7 524,218.3 529.7,218.3 529.7,224 530.3,224 
			530.3,218.3 536,218.3 536,217.7 		"/>
		<polygon class="st16" points="446.3,217.7 446.3,212 445.7,212 445.7,217.7 440,217.7 440,218.3 445.7,218.3 445.7,224 446.3,224 
			446.3,218.3 452,218.3 452,217.7 		"/>
		<polygon class="st16" points="488.3,217.7 488.3,212 487.7,212 487.7,217.7 482,217.7 482,218.3 487.7,218.3 487.7,224 488.3,224 
			488.3,218.3 494,218.3 494,217.7 		"/>
		<polygon class="st16" points="572.3,217.7 572.3,212 571.7,212 571.7,217.7 566,217.7 566,218.3 571.7,218.3 571.7,224 572.3,224 
			572.3,218.3 578,218.3 578,217.7 		"/>
		<polygon class="st16" points="404.3,217.7 404.3,212 403.7,212 403.7,217.7 398,217.7 398,218.3 403.7,218.3 403.7,224 404.3,224 
			404.3,218.3 410,218.3 410,217.7 		"/>
		<polygon class="st16" points="320.3,133.7 320.3,128 319.7,128 319.7,133.7 314,133.7 314,134.3 319.7,134.3 319.7,140 320.3,140 
			320.3,134.3 326,134.3 326,133.7 		"/>
		<polygon class="st16" points="320.3,91.7 320.3,86 319.7,86 319.7,91.7 314,91.7 314,92.3 319.7,92.3 319.7,98 320.3,98 
			320.3,92.3 326,92.3 326,91.7 		"/>
		<polygon class="st16" points="362.3,133.7 362.3,128 361.7,128 361.7,133.7 356,133.7 356,134.3 361.7,134.3 361.7,140 362.3,140 
			362.3,134.3 368,134.3 368,133.7 		"/>
		<polygon class="st16" points="278.3,133.7 278.3,128 277.7,128 277.7,133.7 272,133.7 272,134.3 277.7,134.3 277.7,140 278.3,140 
			278.3,134.3 284,134.3 284,133.7 		"/>
		<polygon class="st16" points="194.3,133.7 194.3,128 193.7,128 193.7,133.7 188,133.7 188,134.3 193.7,134.3 193.7,140 194.3,140 
			194.3,134.3 200,134.3 200,133.7 		"/>
		<polygon class="st16" points="236.3,133.7 236.3,128 235.7,128 235.7,133.7 230,133.7 230,134.3 235.7,134.3 235.7,140 236.3,140 
			236.3,134.3 242,134.3 242,133.7 		"/>
		<polygon class="st16" points="152.3,133.7 152.3,128 151.7,128 151.7,133.7 146,133.7 146,134.3 151.7,134.3 151.7,140 152.3,140 
			152.3,134.3 158,134.3 158,133.7 		"/>
		<polygon class="st16" points="110.3,133.7 110.3,128 109.7,128 109.7,133.7 104,133.7 104,134.3 109.7,134.3 109.7,140 110.3,140 
			110.3,134.3 116,134.3 116,133.7 		"/>
		<polygon class="st16" points="68.3,133.7 68.3,128 67.7,128 67.7,133.7 62,133.7 62,134.3 67.7,134.3 67.7,140 68.3,140 
			68.3,134.3 74,134.3 74,133.7 		"/>
		<polygon class="st16" points="530.3,133.7 530.3,128 529.7,128 529.7,133.7 524,133.7 524,134.3 529.7,134.3 529.7,140 530.3,140 
			530.3,134.3 536,134.3 536,133.7 		"/>
		<polygon class="st16" points="446.3,133.7 446.3,128 445.7,128 445.7,133.7 440,133.7 440,134.3 445.7,134.3 445.7,140 446.3,140 
			446.3,134.3 452,134.3 452,133.7 		"/>
		<polygon class="st16" points="488.3,133.7 488.3,128 487.7,128 487.7,133.7 482,133.7 482,134.3 487.7,134.3 487.7,140 488.3,140 
			488.3,134.3 494,134.3 494,133.7 		"/>
		<polygon class="st16" points="572.3,133.7 572.3,128 571.7,128 571.7,133.7 566,133.7 566,134.3 571.7,134.3 571.7,140 572.3,140 
			572.3,134.3 578,134.3 578,133.7 		"/>
		<polygon class="st16" points="404.3,133.7 404.3,128 403.7,128 403.7,133.7 398,133.7 398,134.3 403.7,134.3 403.7,140 404.3,140 
			404.3,134.3 410,134.3 410,133.7 		"/>
		<polygon class="st16" points="278.3,91.7 278.3,86 277.7,86 277.7,91.7 272,91.7 272,92.3 277.7,92.3 277.7,98 278.3,98 
			278.3,92.3 284,92.3 284,91.7 		"/>
		<polygon class="st16" points="194.3,91.7 194.3,86 193.7,86 193.7,91.7 188,91.7 188,92.3 193.7,92.3 193.7,98 194.3,98 
			194.3,92.3 200,92.3 200,91.7 		"/>
		<polygon class="st16" points="236.3,91.7 236.3,86 235.7,86 235.7,91.7 230,91.7 230,92.3 235.7,92.3 235.7,98 236.3,98 
			236.3,92.3 242,92.3 242,91.7 		"/>
		<polygon class="st16" points="152.3,91.7 152.3,86 151.7,86 151.7,91.7 146,91.7 146,92.3 151.7,92.3 151.7,98 152.3,98 
			152.3,92.3 158,92.3 158,91.7 		"/>
		<polygon class="st16" points="110.3,91.7 110.3,86 109.7,86 109.7,91.7 104,91.7 104,92.3 109.7,92.3 109.7,98 110.3,98 
			110.3,92.3 116,92.3 116,91.7 		"/>
		<polygon class="st16" points="68.3,91.7 68.3,86 67.7,86 67.7,91.7 62,91.7 62,92.3 67.7,92.3 67.7,98 68.3,98 68.3,92.3 74,92.3 
			74,91.7 		"/>
		<polygon class="st16" points="362.3,91.7 362.3,86 361.7,86 361.7,91.7 356,91.7 356,92.3 361.7,92.3 361.7,98 362.3,98 
			362.3,92.3 368,92.3 368,91.7 		"/>
		<polygon class="st16" points="530.3,91.7 530.3,86 529.7,86 529.7,91.7 524,91.7 524,92.3 529.7,92.3 529.7,98 530.3,98 
			530.3,92.3 536,92.3 536,91.7 		"/>
		<polygon class="st16" points="446.3,91.7 446.3,86 445.7,86 445.7,91.7 440,91.7 440,92.3 445.7,92.3 445.7,98 446.3,98 
			446.3,92.3 452,92.3 452,91.7 		"/>
		<polygon class="st16" points="488.3,91.7 488.3,86 487.7,86 487.7,91.7 482,91.7 482,92.3 487.7,92.3 487.7,98 488.3,98 
			488.3,92.3 494,92.3 494,91.7 		"/>
		<polygon class="st16" points="572.3,91.7 572.3,86 571.7,86 571.7,91.7 566,91.7 566,92.3 571.7,92.3 571.7,98 572.3,98 
			572.3,92.3 578,92.3 578,91.7 		"/>
		<polygon class="st16" points="404.3,91.7 404.3,86 403.7,86 403.7,91.7 398,91.7 398,92.3 403.7,92.3 403.7,98 404.3,98 
			404.3,92.3 410,92.3 410,91.7 		"/>
		<g>
			<polygon class="st16" points="572.3,469.7 572.3,464 571.7,464 571.7,469.7 566,469.7 566,470.3 571.7,470.3 571.7,471 
				572.3,471 572.3,470.3 578,470.3 578,469.7 			"/>
			<polygon class="st16" points="529.7,471 530.3,471 530.3,470.3 536,470.3 536,469.7 530.3,469.7 530.3,464 529.7,464 
				529.7,469.7 524,469.7 524,470.3 529.7,470.3 			"/>
			<polygon class="st16" points="487.7,471 488.3,471 488.3,470.3 494,470.3 494,469.7 488.3,469.7 488.3,464 487.7,464 
				487.7,469.7 482,469.7 482,470.3 487.7,470.3 			"/>
			<polygon class="st16" points="445.7,471 446.3,471 446.3,470.3 452,470.3 452,469.7 446.3,469.7 446.3,464 445.7,464 
				445.7,469.7 440,469.7 440,470.3 445.7,470.3 			"/>
			<polygon class="st16" points="403.7,471 404.3,471 404.3,470.3 410,470.3 410,469.7 404.3,469.7 404.3,464 403.7,464 
				403.7,469.7 398,469.7 398,470.3 403.7,470.3 			"/>
			<polygon class="st16" points="361.7,471 362.3,471 362.3,470.3 368,470.3 368,469.7 362.3,469.7 362.3,464 361.7,464 
				361.7,469.7 356,469.7 356,470.3 361.7,470.3 			"/>
			<polygon class="st16" points="319.7,471 320.3,471 320.3,470.3 326,470.3 326,469.7 320.3,469.7 320.3,464 319.7,464 
				319.7,469.7 314,469.7 314,470.3 319.7,470.3 			"/>
			<polygon class="st16" points="277.7,471 278.3,471 278.3,470.3 284,470.3 284,469.7 278.3,469.7 278.3,464 277.7,464 
				277.7,469.7 272,469.7 272,470.3 277.7,470.3 			"/>
			<polygon class="st16" points="235.7,471 236.3,471 236.3,470.3 242,470.3 242,469.7 236.3,469.7 236.3,464 235.7,464 
				235.7,469.7 230,469.7 230,470.3 235.7,470.3 			"/>
			<polygon class="st16" points="193.7,471 194.3,471 194.3,470.3 200,470.3 200,469.7 194.3,469.7 194.3,464 193.7,464 
				193.7,469.7 188,469.7 188,470.3 193.7,470.3 			"/>
			<polygon class="st16" points="151.7,471 152.3,471 152.3,470.3 158,470.3 158,469.7 152.3,469.7 152.3,464 151.7,464 
				151.7,469.7 146,469.7 146,470.3 151.7,470.3 			"/>
			<polygon class="st16" points="109.7,471 110.3,471 110.3,470.3 116,470.3 116,469.7 110.3,469.7 110.3,464 109.7,464 
				109.7,469.7 104,469.7 104,470.3 109.7,470.3 			"/>
			<polygon class="st16" points="67.7,471 68.3,471 68.3,470.3 74,470.3 74,469.7 68.3,469.7 68.3,464 67.7,464 67.7,469.7 
				62,469.7 62,470.3 67.7,470.3 			"/>
		</g>
		<g>
			<polygon class="st16" points="67.7,50.3 67.7,56 68.3,56 68.3,50.3 74,50.3 74,49.7 68.3,49.7 68.3,49 67.7,49 67.7,49.7 
				62,49.7 62,50.3 			"/>
			<polygon class="st16" points="110.3,49 109.7,49 109.7,49.7 104,49.7 104,50.3 109.7,50.3 109.7,56 110.3,56 110.3,50.3 
				116,50.3 116,49.7 110.3,49.7 			"/>
			<polygon class="st16" points="152.3,49 151.7,49 151.7,49.7 146,49.7 146,50.3 151.7,50.3 151.7,56 152.3,56 152.3,50.3 
				158,50.3 158,49.7 152.3,49.7 			"/>
			<polygon class="st16" points="194.3,49 193.7,49 193.7,49.7 188,49.7 188,50.3 193.7,50.3 193.7,56 194.3,56 194.3,50.3 
				200,50.3 200,49.7 194.3,49.7 			"/>
			<polygon class="st16" points="236.3,49 235.7,49 235.7,49.7 230,49.7 230,50.3 235.7,50.3 235.7,56 236.3,56 236.3,50.3 
				242,50.3 242,49.7 236.3,49.7 			"/>
			<polygon class="st16" points="278.3,49 277.7,49 277.7,49.7 272,49.7 272,50.3 277.7,50.3 277.7,56 278.3,56 278.3,50.3 
				284,50.3 284,49.7 278.3,49.7 			"/>
			<polygon class="st16" points="320.3,49 319.7,49 319.7,49.7 314,49.7 314,50.3 319.7,50.3 319.7,56 320.3,56 320.3,50.3 
				326,50.3 326,49.7 320.3,49.7 			"/>
			<polygon class="st16" points="362.3,49 361.7,49 361.7,49.7 356,49.7 356,50.3 361.7,50.3 361.7,56 362.3,56 362.3,50.3 
				368,50.3 368,49.7 362.3,49.7 			"/>
			<polygon class="st16" points="404.3,49 403.7,49 403.7,49.7 398,49.7 398,50.3 403.7,50.3 403.7,56 404.3,56 404.3,50.3 
				410,50.3 410,49.7 404.3,49.7 			"/>
			<polygon class="st16" points="446.3,49 445.7,49 445.7,49.7 440,49.7 440,50.3 445.7,50.3 445.7,56 446.3,56 446.3,50.3 
				452,50.3 452,49.7 446.3,49.7 			"/>
			<polygon class="st16" points="488.3,49 487.7,49 487.7,49.7 482,49.7 482,50.3 487.7,50.3 487.7,56 488.3,56 488.3,50.3 
				494,50.3 494,49.7 488.3,49.7 			"/>
			<polygon class="st16" points="530.3,49 529.7,49 529.7,49.7 524,49.7 524,50.3 529.7,50.3 529.7,56 530.3,56 530.3,50.3 
				536,50.3 536,49.7 530.3,49.7 			"/>
			<polygon class="st16" points="572.3,49 571.7,49 571.7,49.7 566,49.7 566,50.3 571.7,50.3 571.7,56 572.3,56 572.3,50.3 
				578,50.3 578,49.7 572.3,49.7 			"/>
		</g>
	</g>
</g>
<g id="Layer_5">
	<g>
		<linearGradient id="SVGID_4_" gradientUnits="userSpaceOnUse" x1="151.7425" y1="93.2849" x2="146.4514" y2="-7.6752">
			<stop  offset="0" style="stop-color:#330039"/>
			<stop  offset="1" style="stop-color:#A91353"/>
		</linearGradient>
		<path class="st17" d="M0,0v101c34.2,0.4,68.2-14.2,97.1-32.3c14.4-9.1,28.4-19.3,44.7-25c9.2-3.2,18-6.7,46.2-1
			c15.6,3.1,38.2,16.9,60.3,12.7C273.4,50.5,287,37.7,299,0H0z"/>
	</g>
	<g>
		<linearGradient id="SVGID_5_" gradientUnits="userSpaceOnUse" x1="1.6694" y1="295.8304" x2="129.562" y2="536.3614">
			<stop  offset="0" style="stop-color:#004BEB"/>
			<stop  offset="1" style="stop-color:#08F51C"/>
		</linearGradient>
		<path class="st18" d="M0,520h160.3c-9.7-22-17.6-44.6-17-68.4c0.6-26,11.4-51.1,10.8-77.1c-0.7-29.7-17.6-58.5-43.2-73.6
			c-18.8-11.1-41.2-14.8-62.9-13.6c-16.3,0.9-32.3,4.5-48,9.3V520z"/>
	</g>
	<g>
		<linearGradient id="SVGID_6_" gradientUnits="userSpaceOnUse" x1="382.5684" y1="-40.2577" x2="659.6181" y2="192.2147">
			<stop  offset="0" style="stop-color:#F38220"/>
			<stop  offset="0.5" style="stop-color:#ED1C24"/>
			<stop  offset="0.7962" style="stop-color:#E10C55"/>
			<stop  offset="1" style="stop-color:#D80079"/>
		</linearGradient>
		<path class="st19" d="M640,0H348.8c-10.2,13.9-16.7,30.9-17.8,46c-1.9,23.6,6.9,43.1,18.7,58.3c19.5,25.1,47.9,41.2,81.1,45.9
			c34.4,4.9,73.6-1.7,104.6,10.3c25.7,9.9,43.7,51.5,81.8,54.6c8.7,0.7,16.3,0.8,22.9,0.4V0z"/>
	</g>
</g>
<g id="Border">
	<g>
		<rect x="45" y="64" class="st20" width="4" height="392"/>
	</g>
	<polygon class="st20" points="53,45 49,45 49,41 45,41 45,45 41,45 41,49 45,49 45,53 49,53 49,49 53,49 	"/>
	<polygon class="st20" points="53,471 49,471 49,467 45,467 45,471 41,471 41,475 45,475 45,479 49,479 49,475 53,475 	"/>
	<rect x="64" y="45" class="st20" width="512" height="4"/>
	<polygon class="st20" points="599,45 595,45 595,41 591,41 591,45 587,45 587,49 591,49 591,53 595,53 595,49 599,49 	"/>
	<g>
		<rect x="591" y="64" class="st20" width="4" height="392"/>
	</g>
	<polygon class="st20" points="599,471 595,471 595,467 591,467 591,471 587,471 587,475 591,475 591,479 595,479 595,475 599,475 	
		"/>
	<rect x="64" y="471" class="st20" width="512" height="4"/>
</g>
<g id="Overlapped_Shape">
	<g>
		
			<linearGradient id="SVGID_8_" gradientUnits="userSpaceOnUse" x1="502.9677" y1="335.0424" x2="423.9315" y2="504.536" gradientTransform="matrix(0.9799 -0.1996 0.1996 0.9799 -76.1526 100.0029)">
			<stop  offset="0" style="stop-color:#0094D9"/>
			<stop  offset="1" style="stop-color:#ED1651"/>
		</linearGradient>
		<path class="st27" d="M433.8,508.2c18,5.3,29.8,0.4,48.1-11.1c16.5-10.3,38.7-10.1,54.8-21.8c13.8-10,25.1-24.1,29.9-40.6
			c3.2-10.7-1.1-20.1,2.4-30.7c4.7-14.3,11.4-24.5,9.3-34.7C574,348,557,341,535,346c-28.6,6.5-33.5,11.5-51,25.9
			c-13.9,11.4-28.7,18.2-57.9,24.2c-22.3,4.5-51.9,3.2-68,24.9c-12.5,16.8-18.5,43.2-5,53.5c20.8,15.8,27.6,3.5,49.2,12.6
			C417.4,493.4,424.5,505.4,433.8,508.2z"/>
	</g>
</g>
</svg>
