<?xml version="1.0" encoding="utf-8"?>
<!-- Generator: Adobe Illustrator 21.0.0, SVG Export Plug-In . SVG Version: 6.00 Build 0)  -->
<svg version="1.1" id="Layer_1" xmlns="http://www.w3.org/2000/svg" xmlns:xlink="http://www.w3.org/1999/xlink" x="0px" y="0px"
	 width="96px" height="96px" viewBox="0 0 96 96" style="enable-background:new 0 0 96 96;" xml:space="preserve">
<path d="M39,48.9c0.3,0,0.3,0.3,0.3,0.6c0,0.9-0.9,2.2-1.3,2.9c-1.6,2.9-4.6,4.1-7.2,5.7c0,0-4.6,8.9-8.1,13.9
	c-2.8,3.9-5.6,6.6-9.8,6.6c-2.1,0-2.9-2.9-2.9-5.1c0-8.3,13.2-16.5,18.4-19.5c5.1-9.7,11.7-21.4,17.2-30.8c0-0.1,0.2-0.3,0.2-0.4
	c0-0.1-0.1-0.1-0.2-0.1c-1.2,0-2.5,0.3-3.6,0.6c-7.1,1.8-14.4,6.9-19.6,13.4c-1.3,1.7-3.5,4.7-3.5,7.2c0,2.1,1.7,3.3,3.1,3.3
	c2.5,0,4.7-2.9,5.1-2.9c0.1,0,0.1,0.3,0.1,0.4c0,1.4-0.5,2.9-1.1,4.1c-0.9,1.7-3.4,2.8-5,2.8c-3,0-6.7-2.5-6.7-6.9
	c0-0.7,0.1-1.4,0.3-2.1c2-8.3,9.4-14.5,15.1-18.4c5.7-4,13.5-6.7,20-6.7c1.1,0,2.2,1,2.2,2.6c0,0.3,0,0.5,0,0.8
	c-0.4,1.2-4.4,7.6-5.3,9.2c-3.3,5.7-8.6,15.5-11.9,21.3C35.4,50.5,38.4,48.9,39,48.9z M13.3,73c0,0.5,0.3,0.7,0.7,0.7
	c3.4,0,8.9-9.3,10.8-12.7C22.6,62.6,13.3,70.1,13.3,73z"/>
<path d="M66.6,55c1.8-0.5,4.5-3.5,7.3-7.4c0.3-0.5,0.5-0.9,0.7-0.9c0.4,0,0.5,2.2,0.6,3.1c0,0.4,0.2,0.8,0.2,1.1s-0.1,0.9-0.6,1.7
	c-1.8,2.9-7.6,9.2-10,9.2c-2.2,0-3.3-2.1-3.3-4c0-0.2,0-0.4,0-0.7c0.6-4.1,10.1-20.8,14.6-28.7C70,36.7,55.1,57,51.7,60.6
	c-0.3,0.3-0.6,0.4-1,0.4c-1.1,0-2.6-1.2-2.6-2.6v-0.2c0.1-1.7,8-21.1,11.9-29.6c-4.8,6.7-15.8,23.9-21.4,38.3
	c-0.3,0.8-0.7,0.9-1,0.9c-0.4,0-0.8-0.2-1.3-0.3c-1.2-0.4-2.1-1.2-2.1-2.5c0-2.8,21.3-41,28.3-46.9c0.6-0.5,1-0.7,1.3-0.7
	c0.5,0,0.8,0.4,0.9,0.4c0.1,0,0.1,0,0.2-0.1c0.2-0.3,0.7-0.5,1.2-0.5c1.1,0,2.6,0.7,2.6,1.4c0,0.1,0,0.2,0,0.3
	c-0.5,1.6-8.7,19.5-13.1,30.2c4.6-7.1,19.8-27.9,24.9-31.7c0.2-0.2,0.4-0.2,0.7-0.2c0.4,0,0.9,0.2,1.6,0.4c0.9,0.3,2.1,0.3,2.5,0.4
	c0.5,0.1,0.9,0.6,0.9,1.1c0,0.2,0,0.3-0.1,0.5C82.7,24.9,69.3,47.4,66.6,55z"/>
</svg>
