<svg xmlns="http://www.w3.org/2000/svg" width="96" height="96"><path d="M39 48.9c.3 0 .3.3.3.6 0 .9-.9 2.2-1.3 2.9-1.6 2.9-4.6 4.1-7.2 5.7 0 0-4.6 8.9-8.1 13.9-2.8 3.9-5.6 6.6-9.8 6.6-2.1 0-2.9-2.9-2.9-5.1C10 65.2 23.2 57 28.4 54c5.1-9.7 11.7-21.4 17.2-30.8 0-.1.2-.3.2-.4 0-.1-.1-.1-.2-.1-1.2 0-2.5.3-3.6.6-7.1 1.8-14.4 6.9-19.6 13.4-1.3 1.7-3.5 4.7-3.5 7.2 0 2.1 1.7 3.3 3.1 3.3 2.5 0 4.7-2.9 5.1-2.9.1 0 .1.3.1.4 0 1.4-.5 2.9-1.1 4.1-.9 1.7-3.4 2.8-5 2.8-3 0-6.7-2.5-6.7-6.9 0-.7.1-1.4.3-2.1 2-8.3 9.4-14.5 15.1-18.4 5.7-4 13.5-6.7 20-6.7 1.1 0 2.2 1 2.2 2.6v.8c-.4 1.2-4.4 7.6-5.3 9.2-3.3 5.7-8.6 15.5-11.9 21.3.6-.9 3.6-2.5 4.2-2.5zM13.3 73c0 .5.3.7.7.7 3.4 0 8.9-9.3 10.8-12.7-2.2 1.6-11.5 9.1-11.5 12zM66.6 55c1.8-.5 4.5-3.5 7.3-7.4.3-.5.5-.9.7-.9.4 0 .5 2.2.6 3.1 0 .4.2.8.2 1.1s-.1.9-.6 1.7c-1.8 2.9-7.6 9.2-10 9.2-2.2 0-3.3-2.1-3.3-4v-.7c.6-4.1 10.1-20.8 14.6-28.7-6.1 8.3-21 28.6-24.4 32.2-.3.3-.6.4-1 .4-1.1 0-2.6-1.2-2.6-2.6v-.2c.1-1.7 8-21.1 11.9-29.6-4.8 6.7-15.8 23.9-21.4 38.3-.3.8-.7.9-1 .9-.4 0-.8-.2-1.3-.3-1.2-.4-2.1-1.2-2.1-2.5 0-2.8 21.3-41 28.3-46.9.6-.5 1-.7 1.3-.7.5 0 .8.4.9.4.1 0 .1 0 .2-.1.2-.3.7-.5 1.2-.5 1.1 0 2.6.7 2.6 1.4v.3c-.5 1.6-8.7 19.5-13.1 30.2 4.6-7.1 19.8-27.9 24.9-31.7.2-.2.4-.2.7-.2.4 0 .9.2 1.6.4.9.3 2.1.3 2.5.4.5.1.9.6.9 1.1 0 .2 0 .3-.1.5-3.4 5.3-16.8 27.8-19.5 35.4z"/></svg>