<?xml version="1.0" encoding="utf-8"?>
<!-- Generator: Adobe Illustrator 21.0.0, SVG Export Plug-In . SVG Version: 6.00 Build 0)  -->
<svg version="1.1" id="Layer_1" xmlns="http://www.w3.org/2000/svg" xmlns:xlink="http://www.w3.org/1999/xlink" x="0px" y="0px"
	 width="205px" height="65px" viewBox="0 0 205 65" style="enable-background:new 0 0 205 65;" xml:space="preserve">
<g>
	<path d="M39,33.5c0.3,0,0.4,0.3,0.4,0.6c0,0.9-1.3,2.4-1.8,3.1c-2.2,3.1-6.3,4.4-9.7,6.1c0,0-6.1,9.5-10.9,14.8
		c-3.8,4.2-7.5,7-13.2,7C1.1,65,0,61.9,0,59.5C0,50.8,17.7,42,24.7,38.8c7-10.3,15.8-22.8,23.2-32.7C48,6,48.2,5.8,48.2,5.7
		S48,5.6,47.9,5.6c-1.6,0-3.3,0.3-4.9,0.6c-9.6,2-19.4,7.4-26.4,14.2c-1.8,1.8-4.8,5-4.8,7.7c0,2.2,2.3,3.5,4.2,3.5
		c3.3,0,6.4-3.1,6.9-3.1c0.2,0,0.2,0.3,0.2,0.4c0,1.5-0.6,3.1-1.5,4.3c-1.3,1.8-4.8,2.9-7,2.9c-4.1,0-9-2.6-9-7.3
		c0-0.7,0.2-1.5,0.4-2.2C8.8,18,18.8,11.3,26.3,7.1C34,2.9,44.5,0,53.2,0c1.5,0,2.9,1.1,2.9,2.7c0,0.3,0,0.5-0.1,0.8
		c-0.5,1.3-5.9,8.1-7.1,9.8c-4.5,6-11.6,16.4-15.9,22.5C34.2,35.2,38.1,33.5,39,33.5z M4.5,59.1c0,0.5,0.4,0.7,0.8,0.7
		c4.6,0,12-9.9,14.5-13.5C17,48,4.5,56,4.5,59.1z"/>
	<path d="M91.5,18.3c-2.1,0-3.3,1.5-3.3,2.5s0.7,1.1,0.7,2.3c0,1.6-2.6,5.9-5.8,9.9c-2.6,3.3-8.9,9-10,9c-0.1,0-0.2-0.1-0.2-0.2
		c0-2.6,8.5-16.6,8.5-18.9c0-1-1-2.1-2.5-2.1c-2.8,0-8.1,6.3-8.7,6.9C70.1,27.8,70,28,70,28.2c0,0.9,1,2.3,1.4,2.3s1.2-0.6,2-1.2
		c-1.1,1.8-2.7,5.6-4.5,8.5c-1.2,2-4.1,4.7-6,4.7c-0.8,0-1-0.9-1-1.7c0-0.3,0-0.7,0.1-0.9c1-5.7,6.3-14.3,6.7-14.8
		c0.3-0.3,0.4-0.8,0.4-1.3c0-1.1-1.1-1.6-2.4-1.6s-1.8,0.1-2.8,1.7c-0.3-1-1.7-2-4.1-2c-6.9,0-18.7,9.9-18.7,19.3c0,0.5,0,1,0.1,1.6
		c0.3,2.2,2.2,4.3,4.9,4.3c3.1,0,8.2-3.6,11.6-8.1c-0.4,0.9-0.6,2-0.6,3c0,2.6,1.4,5.3,4.7,5.3c2,0,4.2-1.2,6-2.7
		c0.4,1.9,2,2.7,3.3,2.7c3.3,0,9.7-5,14.8-10.8c4.7-5.4,8.4-11.6,8.4-14.6C94.5,19.2,93.2,18.3,91.5,18.3z M57.6,32.7
		c-2.4,3-9.5,9.2-10.7,9.2c-0.4,0-0.6-0.3-0.6-0.8c0-1.9,2.7-6.7,5.4-9.5c4.8-5.1,8.9-6,11.1-6C61.1,27.9,59,30.9,57.6,32.7z"/>
	<g>
		<path d="M106.5,16.9c2.4,0,5.1-3.1,5.1-5.4c0-1.2-0.7-1.8-1.8-1.8c-2.6,0-5.1,2.8-5.1,5.3C104.7,16.3,105.3,16.9,106.5,16.9z"/>
		<path d="M103.7,37.9c-1.4,1.4-4.4,4.6-6.9,4.6c-0.8,0-1.6-0.2-1.6-1.1c0-1.5,1.6-3.8,2.3-5c0.9-1.6,7.4-12.9,7.4-13.6
			c0-1-1.3-2.5-2.3-2.5c-2.7,0-7.5,5.3-7.5,5.9c0,0.7,1.3,1.4,1.3,2.1c0,0.5-6.9,10.6-6.9,13.7c0,2.8,2.9,5.4,5.7,5.4
			c2.2,0,5.4-1.1,7.8-3.1c1.5,2.4,5,3,7.8,3c2.5,0,4.8-0.7,6.9-1.7c0.7,0.3,1.5,0.6,1.9,0.6c0.7,0,1.5-0.8,1.9-1.4
			c2.1-2.8,4.3-5.5,6.6-8.1c1.6-1.7,10-10.7,11.7-10.8l0.1,0.1c-1.1,1.3-2.3,3.1-2.3,4.9c0,1.2,0.7,2.4,2.1,2.4c0.8,0,1.3-0.4,1.8-1
			c1.2-1.6,4.9-7.1,4.9-8.9c0-1.7-1.3-2.8-2.9-2.8c-4.8,0-9.6,5.1-12.6,8.4c0.9-1.5,4-5.8,4-7.3c0-0.5-0.1-1.2-0.8-1.2
			c-1.7,0-3.7,0.4-4.8,1.8s-1.8,3-2.8,4.5c-2.7,4.5-5.7,11.3-7.7,13.2c-2.4,2.3-4.8,3.1-7.3,3.1c-1.7,0-4.2-0.3-4.2-2.5
			c0-1.4,5.3-4.4,6.6-5.1c1-0.5,2-0.6,2.9-1.4c0.4-0.3,1.1-0.9,1.1-1.4s-0.8-1.8-1.3-2.1c-0.2-0.1-0.4-0.1-0.6-0.1c-1.6,0-3,1-4.7,1
			c-0.1,0-0.6,0-0.6-0.3c0-1.2,4.3-4,5.3-4.6c0.8-0.5,1.7-0.9,2.6-1.2c-0.1,0.3-0.1,0.5-0.1,0.8c0,0.9,0.1,1.4,1.1,1.4
			c2.8,0,5.5-2.4,5.5-5.2c0-1.4-2.1-1.9-3.2-1.9c-5.3,0-15.7,4.4-15.7,10.6c0,1.7,0.2,2.9,1.9,3.7c-0.9,0.3-1.6,0.6-2.6,1.2
			C104.8,36.8,104,37.6,103.7,37.9z"/>
	</g>
	<path d="M174.6,46.7c-0.5,0.8-3.2,0.5-3.9,0.3c-1-0.3-1.3-0.7-1.2-1.4c0.5-2.3,16.2-25.4,22.3-33.8c-8.3,8.6-28.3,30.2-33,34
		c-0.4,0.3-0.8,0.4-1.3,0.4c-1.6,0-3.5-1.3-3.5-2.7v-0.2c0.2-1.8,10.7-22.4,16-31.4c-6.5,7.2-21.2,25.4-28.7,40.6
		c-0.4,0.8-0.8,1-1.4,1c-0.5,0-1-0.2-1.8-0.3c-1.6-0.4-2.8-1.3-2.8-2.6c0-3.1,28.7-43.5,38-49.7c0.8-0.5,1.4-0.7,1.8-0.7
		c0.7,0,1,0.4,1.2,0.4c0.1,0,0.2,0,0.2-0.1c0.3-0.3,0.9-0.5,1.6-0.5c1.5,0,3.5,0.7,3.5,1.5c0,0.1,0,0.2-0.1,0.3
		c-0.6,1.7-11.7,20.7-17.6,32.1c6.3-7.6,26.7-29.6,33.4-33.6c0.2-0.2,0.5-0.2,0.8-0.2c0.6,0,1.3,0.2,2.2,0.4
		c1.1,0.3,2.8,0.3,3.3,0.4C204.4,1,205,1.5,205,2c0,0.2-0.1,0.3-0.2,0.5c-4.1,5.5-23.7,33.2-28.2,40.9
		C175.5,45.4,175.5,45.3,174.6,46.7z"/>
	<path d="M197.9,42.1c0,2.2-2.2,5.1-4.8,5.1c-1.8,0-2.3-1.2-2.3-2.3c0-2.5,2.4-4.9,4.9-4.9C197.1,40,197.9,40.9,197.9,42.1z"/>
</g>
</svg>
