<svg xmlns="http://www.w3.org/2000/svg" width="233px" height="167px" viewBox="0 0 233 167">
	<linearGradient id="gradient" gradientUnits="userSpaceOnUse" x1="85.4167" y1="-111.708" x2="6.2937" y2="57.9717" gradientTransform="matrix(0.9799 -0.1996 0.1996 0.9799 -31.7663 32.2052)">
		<stop offset="0" style="stop-color:#0094D9"/>
		<stop offset="1" style="stop-color:#ED1651"/>
	</linearGradient>
	<path fill="url(#gradient)" d="M88.4,164.8c18,5.4,29.8,0.4,48.1-11.1c16.5-10.3,38.8-10.2,54.8-21.8c13.8-10,25.1-24.2,30-40.7
		c3.2-10.7,0.6-19.7,2.4-30.7c2-12,10-24.4,9.3-34.8C231.7,6.5,212-2.3,189.6,0.5c-16,2-33.5,13.5-51,27.9
		c-13.9,11.4-28.7,18.2-57.9,24.2c-22.3,4.5-51.9,3.2-68,24.9c-12.5,16.8-18.5,43.3-5,53.6c20.8,15.8,27.6,3.5,49.2,12.6
		C72,150.1,79.1,162.1,88.4,164.8z"/>
</svg>
