<svg xmlns="http://www.w3.org/2000/svg" width="233px" height="166px" viewBox="0 0 233 166">
<g>
	<linearGradient id="gradient" gradientUnits="userSpaceOnUse" x1="199.3582" y1="-50.1741" x2="187.2972" y2="102.5472" gradientTransform="matrix(0.9799 -0.1996 0.1996 0.9799 -76.1526 100.0029)">
	<stop offset="0" style="stop-color:#0094D9"/>
	<stop offset="1" style="stop-color:#ED1651"/>
	</linearGradient>
	<path fill="url(#gradient)" d="M88.2,163.8c17.9,5.4,29.7,0.4,48-11.1c16.4-10.3,38.7-10.2,54.7-21.8c13.8-10,25-24.1,29.9-40.7
		c3.2-10.7-1.1-20.1,2.4-30.7c4.7-14.3,11.4-24.5,9.3-34.8c-4.3-21.3-21.3-28.3-43.3-23.3c-28.6,6.5-33.4,11.5-51,25.9
		c-13.9,11.4-28.6,18.2-57.9,24.2c-22.2,4.5-51.8,3.2-67.9,24.9c-12.5,16.8-18.5,43.2-5,53.5c20.8,15.8,27.5,3.5,49.2,12.6
		C71.8,149.1,79,161.1,88.2,163.8z"/>
</g>
</svg>
